<?xml version="1.0" encoding="utf-8"?>
<!-- Generator: Adobe Illustrator 27.7.0, SVG Export Plug-In . SVG Version: 6.00 Build 0)  -->
<svg version="1.1" id="Layer_1" xmlns="http://www.w3.org/2000/svg" xmlns:xlink="http://www.w3.org/1999/xlink" x="0px" y="0px"
	 viewBox="0 0 1168.9 312.7" style="enable-background:new 0 0 1168.9 312.7;" xml:space="preserve">
<style type="text/css">
	.st0{fill:none;}
	.st1{fill:#FFFFFF;}
</style>
<g>
	<rect id="canvas_background" x="-62" y="-14" class="st0" width="1282" height="342"/>
</g>
<g>
	<g id="g10" transform="matrix(2.434046355760429,0,0,-2.434046355760429,-509.8421563195561,1029.389382145335) ">
		<g id="g12" transform="translate(2.842170943040401e-14,0) scale(0.10000000149011612) ">
			<path id="path14" class="st1" d="M4155,3770.5c0,104.5,75.5,187.7,212.9,187.7c187.7,0,272.8-133.5,309.6-313.5h3.5h2.3h4.6V3966
				h-4.6h-2.3h-3.5c0-34.8-21.3-52.2-54.2-52.2c-73.5,0-127.7,54.2-270.9,54.2c-236.1,0-363.8-123.8-363.8-294.1
				c0-350.2,557.3-228.3,557.3-526.3c0-112.2-75.5-193.5-214.8-193.5c-193.5,0-319.3,143.2-350.3,336.7h-4.2h-3.6h-3.4v-325.1h3.4v0
				h5.8c1.9,34.8,23.2,52.2,56.1,52.2c92.9,0,135.5-73.5,307.7-73.5c224.5,0,369.6,129.6,369.6,299.9
				C4712.3,3604.1,4155,3470.6,4155,3770.5"/>
			<path id="path16" class="st1" d="M5739.8,2952c-172.2,0-253.5,214.8-253.5,508.9c0,296.1,81.3,497.3,263.2,497.3
				c170.3,0,251.6-210.9,251.6-505.1C6001,3157.1,5919.7,2952,5739.8,2952z M5749.5,3966c-259.3,0-472.2-224.5-472.2-514.7
				c0-288.3,193.5-505.1,462.5-505.1c259.3,0,472.2,226.4,472.2,516.7C6212,3751.2,6016.5,3966,5749.5,3966"/>
			<path id="path18" class="st1" d="M3533.8,3962.1c126.5,0,175.1-142.5,174.2-419.8h-411.7
				C3311.2,3793.4,3395.9,3962.1,3533.8,3962.1z M3920.8,3528.6c3.9,269-143.2,441.2-383.2,441.2c-269,0-450.9-228.4-450.9-518.6
				c0-290.3,181.9-507,454.7-507c210.9,0,336.7,118,356.1,270.9h-9.7c-17.4-145.1-125.8-224.5-263.2-224.5
				c-239.9,0-330.9,216.7-330.9,462.5c0,27.1,0,54.2,1.9,75.5H3920.8"/>
			<path id="path20" class="st1" d="M2996.8,3600.5c0,100-18.4,183.6-56.1,245.3c-47.4,80.5-125.1,123.1-229.9,123.1
				c-173.7,0-268.2-120.1-298.7-192.7v168.8h-86.4v0h-10.5v0.2h-121.7v0.1h-98.9v-0.1v-0.2v-5.8v-3.6v-3.7h24.1
				c7.6-0.2,21.5-1.5,31.7-7.1c1-0.6,1.9-1.2,2.9-1.9c31.1-23.5,55-72.1,59.4-152.4V2977h-118.1v-3.8v-3.9v-5.8h429.8h0.1v9.7v3.8
				h-112.3v689.3c0,133.6,83.2,255.5,212.9,255.5c32.7,0,61.4-6.2,85.7-18.2c13.6-7.2,25.8-16.2,36.1-27.1
				c17.2-18,32.4-41.3,40.9-68.5c0.7-2.5,1.5-4.9,2.1-7.4c0.4-1.6,0.8-3.2,1.1-4.8c4-17.6,6.2-36.9,6.2-57.9V2977H2685v-3.8v-9.7h0
				h427.8h2v9.7v3.8h-118.1L2996.8,3600.5"/>
			<path id="path22" class="st1" d="M5186.4,3015.8c-118,0-172.2,73.5-172.2,214.8v708.2h309.6v0v0.1v5.7v4v3.7h-309.6v276.8
				l-195.4-89v-187.8h-120v-3.7v-4v-5.7v-0.1v0h120v-696.6c0-181.9,83.2-298,272.9-298c137.4,0,241.9,96.8,251.5,207.1h-5.8
				C5327.6,3071.9,5261.8,3015.8,5186.4,3015.8"/>
			<path id="path24" class="st1" d="M6594.8,3848.7c-0.6-0.6-1.3-1.3-1.9-1.9c-1.7-1.7-3.3-3.4-5-5.1
				c-45.5-47.4-74.3-102.3-94.9-151.2v73.4c-0.1-0.3-0.2-0.6-0.3-0.9v183.9h-86.4v0h-230.9v0h-0.3v-0.8v-0.2v-1.1v-3.7v-1.1v-1.1
				v-2.6h28.8c4.5-0.3,14.9-2.3,29.9-12.7c29.1-22,51.9-66.1,58.3-137.5c0-0.4,0.1-0.8,0.1-1.3c0.4-4.2,0.7-8.6,0.9-13V2977h-118
				v-3.1v-2.8v-1.1v-0.7v-4.1v-1.1v-0.7h422.5h16.8v5.8v4.5v3.1h-121.8v625.2c0.1,1,0.2,2,0.3,3.1v-3.3
				c14.9,157.2,102.2,266.6,213.1,266.6c89,0,154.2-41.6,182.6-244.7l0.1-1.1h8.1v4.4v330.9v1.9
				C6750.8,3960.2,6657.1,3911.1,6594.8,3848.7"/>
		</g>
	</g>
</g>
</svg>
